<svg width="172" height="101" viewBox="0 0 172 101" fill="none" xmlns="http://www.w3.org/2000/svg">
<mask id="path-1-outside-1_14_3" maskUnits="userSpaceOnUse" x="52" y="34" width="118" height="33" fill="black">
<rect fill="white" x="52" y="34" width="118" height="33"/>
<path d="M53.4205 40.9801V35.9091H77.3125V40.9801H68.4062V65H62.3267V40.9801H53.4205ZM106.652 50.4545C106.652 53.6269 106.051 56.3258 104.848 58.5511C103.655 60.7765 102.026 62.4763 99.9616 63.6506C97.9067 64.8153 95.5961 65.3977 93.0298 65.3977C90.4446 65.3977 88.1245 64.8106 86.0696 63.6364C84.0147 62.4621 82.3906 60.7623 81.1974 58.5369C80.0043 56.3116 79.4077 53.6174 79.4077 50.4545C79.4077 47.2822 80.0043 44.5833 81.1974 42.358C82.3906 40.1326 84.0147 38.4375 86.0696 37.2727C88.1245 36.0985 90.4446 35.5114 93.0298 35.5114C95.5961 35.5114 97.9067 36.0985 99.9616 37.2727C102.026 38.4375 103.655 40.1326 104.848 42.358C106.051 44.5833 106.652 47.2822 106.652 50.4545ZM100.416 50.4545C100.416 48.3996 100.108 46.6667 99.4929 45.2557C98.8868 43.8447 98.0298 42.7746 96.9219 42.0455C95.8139 41.3163 94.5166 40.9517 93.0298 40.9517C91.5431 40.9517 90.2457 41.3163 89.1378 42.0455C88.0298 42.7746 87.1681 43.8447 86.5526 45.2557C85.9465 46.6667 85.6435 48.3996 85.6435 50.4545C85.6435 52.5095 85.9465 54.2424 86.5526 55.6534C87.1681 57.0644 88.0298 58.1345 89.1378 58.8636C90.2457 59.5928 91.5431 59.9574 93.0298 59.9574C94.5166 59.9574 95.8139 59.5928 96.9219 58.8636C98.0298 58.1345 98.8868 57.0644 99.4929 55.6534C100.108 54.2424 100.416 52.5095 100.416 50.4545ZM111.208 65V35.9091H122.685C124.882 35.9091 126.757 36.3021 128.31 37.0881C129.873 37.8646 131.061 38.9678 131.876 40.3977C132.7 41.8182 133.112 43.4896 133.112 45.4119C133.112 47.3437 132.695 49.0057 131.862 50.3977C131.028 51.7803 129.821 52.8409 128.239 53.5795C126.667 54.3182 124.764 54.6875 122.529 54.6875H114.844V49.7443H121.535C122.709 49.7443 123.684 49.5833 124.461 49.2614C125.237 48.9394 125.815 48.4564 126.194 47.8125C126.582 47.1686 126.776 46.3684 126.776 45.4119C126.776 44.446 126.582 43.6316 126.194 42.9688C125.815 42.3059 125.233 41.804 124.447 41.4631C123.67 41.1127 122.69 40.9375 121.506 40.9375H117.359V65H111.208ZM126.918 51.7614L134.148 65H127.359L120.285 51.7614H126.918ZM137.458 35.9091H145.043L153.055 55.4545H153.396L161.407 35.9091H168.992V65H163.026V46.0653H162.785L155.256 64.858H151.194L143.665 45.9943H143.424V65H137.458V35.9091Z"/>
</mask>
<path d="M53.4205 40.9801V35.9091H77.3125V40.9801H68.4062V65H62.3267V40.9801H53.4205ZM106.652 50.4545C106.652 53.6269 106.051 56.3258 104.848 58.5511C103.655 60.7765 102.026 62.4763 99.9616 63.6506C97.9067 64.8153 95.5961 65.3977 93.0298 65.3977C90.4446 65.3977 88.1245 64.8106 86.0696 63.6364C84.0147 62.4621 82.3906 60.7623 81.1974 58.5369C80.0043 56.3116 79.4077 53.6174 79.4077 50.4545C79.4077 47.2822 80.0043 44.5833 81.1974 42.358C82.3906 40.1326 84.0147 38.4375 86.0696 37.2727C88.1245 36.0985 90.4446 35.5114 93.0298 35.5114C95.5961 35.5114 97.9067 36.0985 99.9616 37.2727C102.026 38.4375 103.655 40.1326 104.848 42.358C106.051 44.5833 106.652 47.2822 106.652 50.4545ZM100.416 50.4545C100.416 48.3996 100.108 46.6667 99.4929 45.2557C98.8868 43.8447 98.0298 42.7746 96.9219 42.0455C95.8139 41.3163 94.5166 40.9517 93.0298 40.9517C91.5431 40.9517 90.2457 41.3163 89.1378 42.0455C88.0298 42.7746 87.1681 43.8447 86.5526 45.2557C85.9465 46.6667 85.6435 48.3996 85.6435 50.4545C85.6435 52.5095 85.9465 54.2424 86.5526 55.6534C87.1681 57.0644 88.0298 58.1345 89.1378 58.8636C90.2457 59.5928 91.5431 59.9574 93.0298 59.9574C94.5166 59.9574 95.8139 59.5928 96.9219 58.8636C98.0298 58.1345 98.8868 57.0644 99.4929 55.6534C100.108 54.2424 100.416 52.5095 100.416 50.4545ZM111.208 65V35.9091H122.685C124.882 35.9091 126.757 36.3021 128.31 37.0881C129.873 37.8646 131.061 38.9678 131.876 40.3977C132.7 41.8182 133.112 43.4896 133.112 45.4119C133.112 47.3437 132.695 49.0057 131.862 50.3977C131.028 51.7803 129.821 52.8409 128.239 53.5795C126.667 54.3182 124.764 54.6875 122.529 54.6875H114.844V49.7443H121.535C122.709 49.7443 123.684 49.5833 124.461 49.2614C125.237 48.9394 125.815 48.4564 126.194 47.8125C126.582 47.1686 126.776 46.3684 126.776 45.4119C126.776 44.446 126.582 43.6316 126.194 42.9688C125.815 42.3059 125.233 41.804 124.447 41.4631C123.67 41.1127 122.69 40.9375 121.506 40.9375H117.359V65H111.208ZM126.918 51.7614L134.148 65H127.359L120.285 51.7614H126.918ZM137.458 35.9091H145.043L153.055 55.4545H153.396L161.407 35.9091H168.992V65H163.026V46.0653H162.785L155.256 64.858H151.194L143.665 45.9943H143.424V65H137.458V35.9091Z" fill="#2E2D29"/>
<path d="M53.4205 40.9801H52.4205V41.9801H53.4205V40.9801ZM53.4205 35.9091V34.9091H52.4205V35.9091H53.4205ZM77.3125 35.9091H78.3125V34.9091H77.3125V35.9091ZM77.3125 40.9801V41.9801H78.3125V40.9801H77.3125ZM68.4062 40.9801V39.9801H67.4062V40.9801H68.4062ZM68.4062 65V66H69.4062V65H68.4062ZM62.3267 65H61.3267V66H62.3267V65ZM62.3267 40.9801H63.3267V39.9801H62.3267V40.9801ZM54.4205 40.9801V35.9091H52.4205V40.9801H54.4205ZM53.4205 36.9091H77.3125V34.9091H53.4205V36.9091ZM76.3125 35.9091V40.9801H78.3125V35.9091H76.3125ZM77.3125 39.9801H68.4062V41.9801H77.3125V39.9801ZM67.4062 40.9801V65H69.4062V40.9801H67.4062ZM68.4062 64H62.3267V66H68.4062V64ZM63.3267 65V40.9801H61.3267V65H63.3267ZM62.3267 39.9801H53.4205V41.9801H62.3267V39.9801ZM104.848 58.5511L103.968 58.0757L103.967 58.0786L104.848 58.5511ZM99.9616 63.6506L100.455 64.5205L100.456 64.5198L99.9616 63.6506ZM86.0696 63.6364L86.5657 62.7681L86.5657 62.7681L86.0696 63.6364ZM81.1974 58.5369L80.3161 59.0095L80.3161 59.0095L81.1974 58.5369ZM81.1974 42.358L82.0788 42.8305L82.0788 42.8305L81.1974 42.358ZM86.0696 37.2727L86.5627 38.1427L86.5657 38.141L86.0696 37.2727ZM99.9616 37.2727L99.4655 38.141L99.4702 38.1437L99.9616 37.2727ZM104.848 42.358L103.967 42.8305L103.968 42.8334L104.848 42.358ZM99.4929 45.2557L98.5741 45.6504L98.5763 45.6555L99.4929 45.2557ZM96.9219 42.0455L96.3721 42.8808L96.3721 42.8808L96.9219 42.0455ZM89.1378 42.0455L89.6875 42.8808L89.6875 42.8808L89.1378 42.0455ZM86.5526 45.2557L85.636 44.8558L85.6337 44.861L86.5526 45.2557ZM86.5526 55.6534L85.6337 56.0481L85.636 56.0533L86.5526 55.6534ZM89.1378 58.8636L89.6875 58.0283L89.6875 58.0283L89.1378 58.8636ZM96.9219 58.8636L96.3721 58.0283L96.3721 58.0283L96.9219 58.8636ZM99.4929 55.6534L98.5763 55.2536L98.5741 55.2587L99.4929 55.6534ZM105.652 50.4545C105.652 53.5023 105.074 56.0289 103.968 58.0757L105.728 59.0266C107.027 56.6226 107.652 53.7515 107.652 50.4545H105.652ZM103.967 58.0786C102.857 60.1489 101.357 61.7062 99.4672 62.7813L100.456 64.5198C102.695 63.2464 104.453 61.4041 105.729 59.0237L103.967 58.0786ZM99.4685 62.7806C97.5768 63.8529 95.4386 64.3977 93.0298 64.3977V66.3977C95.7536 66.3977 98.2366 65.7778 100.455 64.5205L99.4685 62.7806ZM93.0298 64.3977C90.6021 64.3977 88.4558 63.8482 86.5657 62.7681L85.5735 64.5046C87.7932 65.773 90.2871 66.3977 93.0298 66.3977V64.3977ZM86.5657 62.7681C84.6848 61.6933 83.1894 60.1359 82.0788 58.0644L80.3161 59.0095C81.5918 61.3887 83.3445 63.2309 85.5735 64.5046L86.5657 62.7681ZM82.0788 58.0644C80.9808 56.0165 80.4077 53.4934 80.4077 50.4545H78.4077C78.4077 53.7414 79.0278 56.6066 80.3161 59.0095L82.0788 58.0644ZM80.4077 50.4545C80.4077 47.4056 80.981 44.878 82.0788 42.8305L80.3161 41.8854C79.0276 44.2887 78.4077 47.1587 78.4077 50.4545H80.4077ZM82.0788 42.8305C83.1891 40.7596 84.6836 39.2078 86.5627 38.1427L85.5765 36.4028C83.3458 37.6672 81.5921 39.5056 80.3161 41.8854L82.0788 42.8305ZM86.5657 38.141C88.4558 37.0609 90.6021 36.5114 93.0298 36.5114V34.5114C90.2871 34.5114 87.7932 35.1361 85.5735 36.4045L86.5657 38.141ZM93.0298 36.5114C95.4372 36.5114 97.5743 37.0603 99.4655 38.141L100.458 36.4045C98.2392 35.1367 95.755 34.5114 93.0298 34.5114V36.5114ZM99.4702 38.1437C101.359 39.2091 102.857 40.7608 103.967 42.8305L105.729 41.8854C104.453 39.5044 102.693 37.6659 100.453 36.4018L99.4702 38.1437ZM103.968 42.8334C105.074 44.8802 105.652 47.4068 105.652 50.4545H107.652C107.652 47.1576 107.027 44.2865 105.728 41.8825L103.968 42.8334ZM101.416 50.4545C101.416 48.3057 101.095 46.4276 100.409 44.8558L98.5763 45.6555C99.1217 46.9057 99.4162 48.4936 99.4162 50.4545H101.416ZM100.412 44.861C99.7409 43.2993 98.7677 42.0631 97.4716 41.2101L96.3721 42.8808C97.292 43.4862 98.0328 44.3901 98.5741 45.6503L100.412 44.861ZM97.4716 41.2101C96.1812 40.3608 94.6875 39.9517 93.0298 39.9517V41.9517C94.3456 41.9517 95.4467 42.2717 96.3721 42.8808L97.4716 41.2101ZM93.0298 39.9517C91.3721 39.9517 89.8785 40.3608 88.588 41.2101L89.6875 42.8808C90.613 42.2717 91.714 41.9517 93.0298 41.9517V39.9517ZM88.588 41.2101C87.2935 42.0621 86.3163 43.2964 85.636 44.8558L87.4691 45.6555C88.0199 44.393 88.7662 43.4872 89.6875 42.8808L88.588 41.2101ZM85.6337 44.861C84.9593 46.4312 84.6435 48.3073 84.6435 50.4545H86.6435C86.6435 48.4919 86.9337 46.9021 87.4714 45.6503L85.6337 44.861ZM84.6435 50.4545C84.6435 52.6018 84.9593 54.4779 85.6337 56.0481L87.4714 55.2587C86.9337 54.0069 86.6435 52.4172 86.6435 50.4545H84.6435ZM85.636 56.0533C86.3163 57.6127 87.2935 58.847 88.588 59.699L89.6875 58.0283C88.7662 57.4219 88.0199 56.5161 87.4691 55.2536L85.636 56.0533ZM88.588 59.699C89.8785 60.5482 91.3721 60.9574 93.0298 60.9574V58.9574C91.714 58.9574 90.613 58.6374 89.6875 58.0283L88.588 59.699ZM93.0298 60.9574C94.6875 60.9574 96.1812 60.5482 97.4716 59.699L96.3721 58.0283C95.4467 58.6374 94.3456 58.9574 93.0298 58.9574V60.9574ZM97.4716 59.699C98.7677 58.846 99.7409 57.6098 100.412 56.0481L98.5741 55.2587C98.0328 56.519 97.292 57.4229 96.3721 58.0283L97.4716 59.699ZM100.409 56.0533C101.095 54.4815 101.416 52.6034 101.416 50.4545H99.4162C99.4162 52.4155 99.1217 54.0034 98.5763 55.2536L100.409 56.0533ZM111.208 65H110.208V66H111.208V65ZM111.208 35.9091V34.9091H110.208V35.9091H111.208ZM128.31 37.0881L127.859 37.9803L127.865 37.9836L128.31 37.0881ZM131.876 40.3977L131.007 40.8926L131.011 40.8994L131.876 40.3977ZM131.862 50.3977L132.718 50.9139L132.72 50.9114L131.862 50.3977ZM128.239 53.5795L127.816 52.6735L127.814 52.6745L128.239 53.5795ZM114.844 54.6875H113.844V55.6875H114.844V54.6875ZM114.844 49.7443V48.7443H113.844V49.7443H114.844ZM124.461 49.2614L124.844 50.1851L124.844 50.1851L124.461 49.2614ZM126.194 47.8125L125.337 47.2961L125.332 47.3055L126.194 47.8125ZM126.194 42.9688L125.326 43.4649L125.331 43.4742L126.194 42.9688ZM124.447 41.4631L124.035 42.3746L124.042 42.3776L124.049 42.3805L124.447 41.4631ZM117.359 40.9375V39.9375H116.359V40.9375H117.359ZM117.359 65V66H118.359V65H117.359ZM126.918 51.7614L127.796 51.282L127.512 50.7614H126.918V51.7614ZM134.148 65V66H135.834L135.026 64.5207L134.148 65ZM127.359 65L126.477 65.4713L126.759 66H127.359V65ZM120.285 51.7614V50.7614H118.617L119.403 52.2326L120.285 51.7614ZM112.208 65V35.9091H110.208V65H112.208ZM111.208 36.9091H122.685V34.9091H111.208V36.9091ZM122.685 36.9091C124.766 36.9091 126.478 37.2813 127.859 37.9803L128.762 36.1958C127.037 35.3229 124.999 34.9091 122.685 34.9091V36.9091ZM127.865 37.9836C129.261 38.6773 130.297 39.646 131.007 40.8926L132.745 39.9028C131.826 38.2896 130.485 37.0519 128.755 36.1926L127.865 37.9836ZM131.011 40.8994C131.732 42.1432 132.112 43.6354 132.112 45.4119H134.112C134.112 43.3437 133.667 41.4932 132.741 39.896L131.011 40.8994ZM132.112 45.4119C132.112 47.1976 131.728 48.6746 131.003 49.8841L132.72 50.9114C133.662 49.3368 134.112 47.4899 134.112 45.4119H132.112ZM131.005 49.8815C130.283 51.0801 129.233 52.0118 127.816 52.6735L128.663 54.4856C130.409 53.6701 131.774 52.4805 132.718 50.9139L131.005 49.8815ZM127.814 52.6745C126.408 53.3354 124.658 53.6875 122.529 53.6875V55.6875C124.87 55.6875 126.927 55.301 128.665 54.4846L127.814 52.6745ZM122.529 53.6875H114.844V55.6875H122.529V53.6875ZM115.844 54.6875V49.7443H113.844V54.6875H115.844ZM114.844 50.7443H121.535V48.7443H114.844V50.7443ZM121.535 50.7443C122.792 50.7443 123.908 50.5732 124.844 50.1851L124.078 48.3376C123.461 48.5935 122.626 48.7443 121.535 48.7443V50.7443ZM124.844 50.1851C125.795 49.7909 126.553 49.1739 127.056 48.3195L125.332 47.3055C125.077 47.739 124.68 48.0879 124.078 48.3376L124.844 50.1851ZM127.05 48.3288C127.555 47.492 127.776 46.5015 127.776 45.4119H125.776C125.776 46.2352 125.609 46.8451 125.338 47.2962L127.05 48.3288ZM127.776 45.4119C127.776 44.3135 127.555 43.3143 127.057 42.4633L125.331 43.4742C125.609 43.949 125.776 44.5785 125.776 45.4119H127.776ZM127.062 42.4726C126.563 41.5995 125.803 40.9615 124.845 40.5456L124.049 42.3805C124.662 42.6465 125.067 43.0122 125.326 43.4649L127.062 42.4726ZM124.858 40.5516C123.912 40.1248 122.78 39.9375 121.506 39.9375V41.9375C122.6 41.9375 123.428 42.1006 124.035 42.3746L124.858 40.5516ZM121.506 39.9375H117.359V41.9375H121.506V39.9375ZM116.359 40.9375V65H118.359V40.9375H116.359ZM117.359 64H111.208V66H117.359V64ZM126.041 52.2407L133.271 65.4793L135.026 64.5207L127.796 51.282L126.041 52.2407ZM134.148 64H127.359V66H134.148V64ZM128.241 64.5287L121.167 51.2901L119.403 52.2326L126.477 65.4713L128.241 64.5287ZM120.285 52.7614H126.918V50.7614H120.285V52.7614ZM137.458 35.9091V34.9091H136.458V35.9091H137.458ZM145.043 35.9091L145.969 35.5298L145.714 34.9091H145.043V35.9091ZM153.055 55.4545L152.129 55.8338L152.384 56.4545H153.055V55.4545ZM153.396 55.4545V56.4545H154.066L154.321 55.8338L153.396 55.4545ZM161.407 35.9091V34.9091H160.736L160.482 35.5298L161.407 35.9091ZM168.992 35.9091H169.992V34.9091H168.992V35.9091ZM168.992 65V66H169.992V65H168.992ZM163.026 65H162.026V66H163.026V65ZM163.026 46.0653H164.026V45.0653H163.026V46.0653ZM162.785 46.0653V45.0653H162.108L161.857 45.6935L162.785 46.0653ZM155.256 64.858V65.858H155.933L156.185 65.2298L155.256 64.858ZM151.194 64.858L150.265 65.2286L150.516 65.858H151.194V64.858ZM143.665 45.9943L144.594 45.6237L144.343 44.9943H143.665V45.9943ZM143.424 45.9943V44.9943H142.424V45.9943H143.424ZM143.424 65V66H144.424V65H143.424ZM137.458 65H136.458V66H137.458V65ZM137.458 36.9091H145.043V34.9091H137.458V36.9091ZM144.118 36.2884L152.129 55.8338L153.98 55.0753L145.969 35.5298L144.118 36.2884ZM153.055 56.4545H153.396V54.4545H153.055V56.4545ZM154.321 55.8338L162.332 36.2884L160.482 35.5298L152.47 55.0753L154.321 55.8338ZM161.407 36.9091H168.992V34.9091H161.407V36.9091ZM167.992 35.9091V65H169.992V35.9091H167.992ZM168.992 64H163.026V66H168.992V64ZM164.026 65V46.0653H162.026V65H164.026ZM163.026 45.0653H162.785V47.0653H163.026V45.0653ZM161.857 45.6935L154.328 64.4861L156.185 65.2298L163.713 46.4372L161.857 45.6935ZM155.256 63.858H151.194V65.858H155.256V63.858ZM152.123 64.4873L144.594 45.6237L142.737 46.365L150.265 65.2286L152.123 64.4873ZM143.665 44.9943H143.424V46.9943H143.665V44.9943ZM142.424 45.9943V65H144.424V45.9943H142.424ZM143.424 64H137.458V66H143.424V64ZM138.458 65V35.9091H136.458V65H138.458Z" fill="white" mask="url(#path-1-outside-1_14_3)"/>
<mask id="path-3-inside-2_14_3" fill="white">
<path fill-rule="evenodd" clip-rule="evenodd" d="M36.3732 46.1543C35.1321 46.1543 34.1907 45.0358 34.4025 43.813L41.5843 2.34903C41.9429 0.278448 39.2745 -0.873425 38.0136 0.807703L0.403632 50.9543C-0.585223 52.2728 0.355542 54.1543 2.00363 54.1543H20.6341C21.8751 54.1543 22.8166 55.2728 22.6048 56.4957L15.423 97.9597C15.0644 100.03 17.7328 101.182 18.9936 99.501L56.6036 49.3543C57.5925 48.0359 56.6517 46.1543 55.0036 46.1543H36.3732Z"/>
</mask>
<path fill-rule="evenodd" clip-rule="evenodd" d="M36.3732 46.1543C35.1321 46.1543 34.1907 45.0358 34.4025 43.813L41.5843 2.34903C41.9429 0.278448 39.2745 -0.873425 38.0136 0.807703L0.403632 50.9543C-0.585223 52.2728 0.355542 54.1543 2.00363 54.1543H20.6341C21.8751 54.1543 22.8166 55.2728 22.6048 56.4957L15.423 97.9597C15.0644 100.03 17.7328 101.182 18.9936 99.501L56.6036 49.3543C57.5925 48.0359 56.6517 46.1543 55.0036 46.1543H36.3732Z" fill="#AE2628"/>
<path d="M56.6036 49.3543L55.8036 48.7543L56.6036 49.3543ZM15.423 97.9597L14.4377 97.789L15.423 97.9597ZM18.9936 99.501L18.1936 98.901L18.9936 99.501ZM22.6048 56.4957L21.6194 56.325L22.6048 56.4957ZM0.403632 50.9543L-0.396368 50.3543L0.403632 50.9543ZM34.4025 43.813L33.4172 43.6424L34.4025 43.813ZM41.5843 2.34903L40.5989 2.17837L41.5843 2.34903ZM40.5989 2.17837L33.4172 43.6424L35.3878 43.9837L42.5696 2.51969L40.5989 2.17837ZM1.20363 51.5543L38.8136 1.4077L37.2136 0.207703L-0.396368 50.3543L1.20363 51.5543ZM20.6341 53.1543H2.00363V55.1543H20.6341V53.1543ZM16.4083 98.1303L23.5901 56.6663L21.6194 56.325L14.4377 97.789L16.4083 98.1303ZM55.8036 48.7543L18.1936 98.901L19.7936 100.101L57.4036 49.9543L55.8036 48.7543ZM36.3732 47.1543H55.0036V45.1543H36.3732V47.1543ZM57.4036 49.9543C58.8869 47.9766 57.4758 45.1543 55.0036 45.1543V47.1543C55.8277 47.1543 56.2981 48.0951 55.8036 48.7543L57.4036 49.9543ZM14.4377 97.789C13.8997 100.895 17.9024 102.623 19.7936 100.101L18.1936 98.901C17.5632 99.7415 16.229 99.1656 16.4083 98.1303L14.4377 97.789ZM20.6341 55.1543C21.2546 55.1543 21.7253 55.7136 21.6194 56.325L23.5901 56.6663C23.9078 54.8321 22.4956 53.1543 20.6341 53.1543V55.1543ZM-0.396368 50.3543C-1.87965 52.3321 -0.468502 55.1543 2.00363 55.1543V53.1543C1.17959 53.1543 0.709205 52.2136 1.20363 51.5543L-0.396368 50.3543ZM33.4172 43.6424C33.0995 45.4766 34.5116 47.1543 36.3732 47.1543V45.1543C35.7526 45.1543 35.2819 44.5951 35.3878 43.9837L33.4172 43.6424ZM42.5696 2.51969C43.1076 -0.586182 39.1049 -2.31399 37.2136 0.207703L38.8136 1.4077C39.444 0.567136 40.7783 1.14308 40.5989 2.17837L42.5696 2.51969Z" fill="white" mask="url(#path-3-inside-2_14_3)"/>
</svg>
